<?xml version="1.0" encoding="UTF-8" standalone="no"?>
<!-- Created with Inkscape (http://www.inkscape.org/) -->

<svg
   width="104.74402mm"
   height="13.314638mm"
   viewBox="0 0 104.74402 13.314638"
   version="1.1"
   id="svg1"
   inkscape:version="1.3.2 (091e20e, 2023-11-25, custom)"
   sodipodi:docname="SQlogo-edge.svg"
   xmlns:inkscape="http://www.inkscape.org/namespaces/inkscape"
   xmlns:sodipodi="http://sodipodi.sourceforge.net/DTD/sodipodi-0.dtd"
   xmlns="http://www.w3.org/2000/svg"
   xmlns:svg="http://www.w3.org/2000/svg">
  <sodipodi:namedview
     id="namedview1"
     pagecolor="#ffffff"
     bordercolor="#000000"
     borderopacity="0.25"
     inkscape:showpageshadow="2"
     inkscape:pageopacity="0.0"
     inkscape:pagecheckerboard="0"
     inkscape:deskcolor="#d1d1d1"
     inkscape:document-units="mm"
     showgrid="true"
     inkscape:zoom="1.0242632"
     inkscape:cx="4.8815578"
     inkscape:cy="104.95349"
     inkscape:window-width="1920"
     inkscape:window-height="1009"
     inkscape:window-x="-8"
     inkscape:window-y="-8"
     inkscape:window-maximized="1"
     inkscape:current-layer="layer1">
    <inkscape:grid
       id="grid5"
       units="mm"
       originx="-78.871616"
       originy="-93.19483"
       spacingx="0.99999998"
       spacingy="1"
       empcolor="#0099e5"
       empopacity="0.30196078"
       color="#0099e5"
       opacity="0.14901961"
       empspacing="5"
       dotted="false"
       gridanglex="30"
       gridanglez="30"
       visible="true" />
  </sodipodi:namedview>
  <defs
     id="defs1" />
  <g
     inkscape:label="Layer 1"
     inkscape:groupmode="layer"
     id="layer1"
     transform="translate(-78.871615,-93.194828)">
    <path
       style="-inkscape-font-specification:'Atkinson Hyperlegible Bold';fill-opacity:0.981685;stroke-width:0.588"
       d="m 94.088274,106.50947 q -1.84573,0 -3.115728,-0.74507 -1.253064,-0.762 -1.777996,-2.11666 l 2.438395,-0.88053 q 0.237066,0.8128 0.880532,1.20226 0.660398,0.38947 1.59173,0.38947 0.491066,0 0.948265,-0.1016 0.457199,-0.11854 0.761998,-0.37254 0.3048,-0.27093 0.3048,-0.71119 0,-0.59267 -0.575733,-0.9144 -0.575732,-0.33867 -1.49013,-0.508 l -1.371597,-0.27093 q -0.914399,-0.18627 -1.710264,-0.5588 -0.778931,-0.38947 -1.253064,-1.016001 -0.474132,-0.643465 -0.474132,-1.608663 0,-0.914398 0.423332,-1.574797 0.423333,-0.660399 1.117598,-1.083731 0.711199,-0.423333 1.557864,-0.626532 0.846665,-0.220133 1.69333,-0.220133 0.914398,0 1.761063,0.253999 0.863598,0.254 1.54093,0.795865 0.677332,0.524933 1.032931,1.405464 l -2.421461,0.880532 q -0.220133,-0.575732 -0.795866,-0.880532 -0.558798,-0.304799 -1.354664,-0.304799 -0.778931,0 -1.303864,0.287866 -0.507999,0.270933 -0.507999,0.795865 0,0.423333 0.3556,0.728132 0.355599,0.304799 0.931331,0.423332 l 1.523997,0.3048 q 0.694265,0.135466 1.405464,0.355599 0.711199,0.203204 1.303864,0.558804 0.609599,0.33866 0.982132,0.91439 0.372532,0.57574 0.372532,1.45627 0,0.89746 -0.423332,1.60866 -0.4064,0.69427 -1.100665,1.1684 -0.677332,0.47413 -1.523997,0.72813 -0.846665,0.23707 -1.727196,0.23707 z m 9.550376,-0.2032 q -1.03294,0 -1.64253,-0.16934 -0.6096,-0.18626 -0.88054,-0.69426 -0.254,-0.52493 -0.254,-1.50707 V 99.871613 H 99.473054 V 97.90735 h 1.388526 v -2.099729 h 2.57387 v 2.099729 h 1.82879 v 1.964263 h -1.82879 v 3.386657 q 0,0.59267 0.22013,0.77893 0.23707,0.16934 0.8636,0.16934 h 0.74506 v 2.09973 z m 2.87865,0 v -8.39892 h 2.032 l 0.4572,1.54093 q 0.38946,-1.015998 1.0668,-1.422397 0.67733,-0.406399 1.64253,-0.355599 v 2.573866 q -0.2032,-0.0339 -0.3556,-0.0339 -0.1524,-0.0169 -0.33867,-0.0169 -0.93133,0 -1.43933,0.44026 -0.49107,0.44027 -0.49107,1.43933 v 4.23333 z m 10.46478,0.2032 q -1.35467,0 -2.40453,-0.52494 -1.03293,-0.54186 -1.6256,-1.54093 -0.57573,-0.99906 -0.57573,-2.38759 0,-1.33773 0.6096,-2.319864 0.62653,-0.982131 1.64253,-1.523997 1.03293,-0.541865 2.25213,-0.541865 1.38853,0 2.37066,0.660398 0.99906,0.643466 1.50706,1.794928 0.508,1.13453 0.42334,2.62466 h -6.21453 q 0.0677,0.88054 0.64347,1.3208 0.59267,0.44027 1.30386,0.44027 0.59267,0 1.016,-0.16934 0.44027,-0.18626 0.67733,-0.4572 l 2.04893,0.74507 q -0.6604,0.9652 -1.65946,1.4224 -0.98213,0.4572 -2.01506,0.4572 z m -2.01507,-5.28319 h 3.82693 q -0.0169,-0.8128 -0.5588,-1.2192 -0.54186,-0.423333 -1.28693,-0.423333 -0.72813,0 -1.30386,0.389466 -0.5588,0.389467 -0.67734,1.253067 z m 9.88905,5.28319 q -0.79586,0 -1.45626,-0.3048 -0.6604,-0.3048 -1.04987,-0.84667 -0.38946,-0.5588 -0.38946,-1.3208 0,-1.03293 0.7112,-1.64253 0.72813,-0.60959 1.98119,-0.91439 1.25307,-0.3048 2.87866,-0.42334 0,-0.89746 -0.28786,-1.269994 -0.28787,-0.372532 -1.1176,-0.372532 -0.52493,0 -0.93133,0.253999 -0.38947,0.237066 -0.52493,0.745067 l -2.16747,-0.778933 q 0.42334,-0.846665 1.40547,-1.405464 0.99906,-0.558799 2.43839,-0.558799 1.79493,0 2.76013,0.795865 0.9652,0.795865 0.9652,2.709331 v 1.84573 q 0,0.54186 0.0339,1.16839 0.0339,0.62654 0.1016,1.18534 0.0677,0.55879 0.1524,0.93133 h -2.3876 l -0.3048,-1.016 q -0.47413,0.6604 -1.20226,0.94826 -0.7112,0.27094 -1.60867,0.27094 z m 0.94827,-1.76107 q 0.762,0 1.27,-0.4064 0.50799,-0.4064 0.50799,-1.55786 v -0.2032 q -1.33773,0.11853 -2.15052,0.37253 -0.8128,0.23707 -0.8128,0.89747 0,0.4064 0.33866,0.6604 0.33867,0.23706 0.84667,0.23706 z m 5.96051,1.55787 v -8.39892 h 2.25213 l 0.32173,1.117598 q 0.28787,-0.474133 0.94827,-0.914398 0.66039,-0.440266 1.59173,-0.440266 0.99906,0 1.59173,0.355599 0.6096,0.355599 0.89746,1.049865 0.49107,-0.694266 1.23613,-1.049865 0.762,-0.355599 1.64253,-0.355599 1.60867,0 2.21826,0.914398 0.6096,0.897465 0.6096,2.607728 v 5.11386 h -2.57386 v -4.47039 q 0,-0.59267 -0.0677,-1.08374 -0.0677,-0.49106 -0.33867,-0.778927 -0.27093,-0.3048 -0.89746,-0.3048 -0.77893,0 -1.13453,0.558797 -0.3556,0.54187 -0.3556,1.64253 v 4.43653 h -2.5908 v -4.47039 q 0,-0.59267 -0.0677,-1.08374 -0.0508,-0.49106 -0.32173,-0.778927 -0.254,-0.3048 -0.8636,-0.3048 -0.79587,0 -1.1684,0.575737 -0.3556,0.57573 -0.3556,1.67639 v 4.38573 z m 17.20424,-9.787451 q -0.62653,0 -1.08373,-0.440265 -0.44027,-0.4572 -0.44027,-1.083732 0,-0.643465 0.44027,-1.083731 0.4572,-0.440266 1.08373,-0.440266 0.64346,0 1.08373,0.440266 0.44026,0.440266 0.44026,1.083731 0,0.626532 -0.44026,1.083732 -0.44027,0.440265 -1.08373,0.440265 z m -1.30387,9.787451 v -6.434657 h -1.59173 V 97.90735 h 4.18253 v 8.39892 z m 4.18254,0 v -8.39892 h 2.25213 l 0.32173,1.117598 q 0.28787,-0.474133 0.94826,-0.914398 0.67734,-0.440266 1.64253,-0.440266 1.6256,0 2.21827,0.914398 0.6096,0.897465 0.6096,2.607728 v 5.11386 h -2.57387 v -4.47039 q 0,-0.59267 -0.0677,-1.08374 -0.0677,-0.49106 -0.33866,-0.778927 -0.254,-0.3048 -0.88054,-0.3048 -0.81279,0 -1.18533,0.592667 -0.37253,0.57573 -0.37253,1.7272 v 4.31799 z"
       id="text1"
       aria-label="Streamin" />
    <path
       id="path3"
       style="fill:#005baa;fill-opacity:1;stroke-width:0.582141"
       d="m 167.46881,93.194828 a 6.3933187,6.4578938 0 0 0 -6.39341,6.457487 6.3933187,6.4578938 0 0 0 6.39341,6.458005 6.3933187,6.4578938 0 0 0 2.80861,-0.65836 l 0.66404,0.87127 h 2.99775 l -1.75906,-2.30684 a 6.3933187,6.4578938 0 0 0 1.68206,-4.364075 6.3933187,6.4578938 0 0 0 -6.3934,-6.457487 z m -0.0729,2.261878 a 4.1241105,4.1657653 0 0 1 4.12378,4.165637 4.1241105,4.1657653 0 0 1 -0.80563,2.471167 l -0.88005,-1.15445 h -2.99775 l 1.97765,2.59416 a 4.1241105,4.1657653 0 0 1 -1.418,0.25528 4.1241105,4.1657653 0 0 1 -4.12429,-4.166157 4.1241105,4.1657653 0 0 1 4.12429,-4.165637 z" />
  </g>
  <g
     id="path4"
     inkscape:transform-center-x="-1.4133906"
     inkscape:transform-center-y="0.0015135026"
     transform="matrix(0.18989723,0.01575149,-0.01575149,0.18989723,-4.6121428,2.1580912)">
    <path
       style="color:#000000;fill:#000000;stroke-linejoin:round;-inkscape-stroke:none"
       d="M 30.481261,47.530098 26.201837,-3.728851 72.733101,18.194534 Z"
       id="path1" />
    <path
       style="color:#000000;fill:#000000;stroke-linejoin:round;-inkscape-stroke:none"
       d="M 27.054687,-5.5390625 A 2.0020551,2.0020551 0 0 0 24.207031,-3.5625 l 4.279297,51.259766 a 2.0020551,2.0020551 0 0 0 3.136719,1.476562 L 73.875,19.839844 A 2.0020551,2.0020551 0 0 0 73.585937,16.382812 Z M 28.486328,-0.43945313 68.744141,18.529297 32.1875,43.908203 Z"
       id="path2" />
  </g>
  <path
     id="rect5-0"
     style="fill:#005baa;fill-opacity:1;stroke:none;stroke-width:1.01395;stroke-linejoin:round;stroke-dasharray:none;stroke-opacity:1"
     d="m 94.954286,2.235618 3.3533,4.514973 -3.3874,4.4788 2.35696,0.0145 3.393074,-4.48603 h -0.005 L 97.311426,2.241855 Z" />
  <path
     id="rect5-0-5"
     style="fill:#005baa;fill-opacity:1;stroke:none;stroke-width:1.01395;stroke-linejoin:round;stroke-dasharray:none;stroke-opacity:1"
     d="m 98.963506,2.251565 3.353284,4.514976 -3.387384,4.4788 2.356944,0.0145 3.39308,-4.48603 h -0.005 l -3.35379,-4.516004 z" />
</svg>
